<?xml version="1.0" encoding="UTF-8"?>
<svg width="801px" height="164px" viewBox="0 0 801 164" version="1.1" xmlns="http://www.w3.org/2000/svg" xmlns:xlink="http://www.w3.org/1999/xlink">
    <!-- Generator: Sketch 49 (51002) - http://www.bohemiancoding.com/sketch -->
    <title>Crossroof Logo Variation 1</title>
    <desc>Created with Sketch.</desc>
    <defs></defs>
    <g id="Symbols" stroke="none" stroke-width="1" fill="none" fill-rule="evenodd">
        <g id="Crossroof-Logo/large/white" fill="#FFFFFF">
            <g id="Crossroof-Logo-Variation-1">
                <path d="M23.296835,127.795345 C23.296835,131.407952 24.3246262,134.192628 26.3802396,136.149457 C28.435853,138.106286 31.214696,139.084686 34.7168521,139.084686 C39.1326142,139.084686 42.0637226,137.80524 43.5102653,135.24631 C44.9568081,132.68738 45.8323339,130.128488 46.1368693,127.569558 L69.4337042,127.569558 C69.4337042,137.654753 66.3122641,145.782998 60.0692902,151.954535 C57.023937,155.115567 53.3695681,157.599197 49.1060737,159.405501 C44.8425793,161.211804 40.0462201,162.114943 34.7168521,162.114943 C27.4080046,162.114943 21.2031907,160.609712 16.1022242,157.599206 C11.0012577,154.5887 7.08042433,150.599839 4.33960651,145.632504 C2.66466229,142.621998 1.522672,139.159968 0.913601371,135.24631 C0.304530745,131.332652 0,127.042745 0,122.376461 L0,84.6700605 C0,80.0037761 0.304530745,75.7138692 0.913601371,71.8002113 C1.522672,67.8865534 2.66466229,64.4245233 4.33960651,61.4140172 C7.08042433,56.4466822 11.0012577,52.4578214 16.1022242,49.4473153 C21.2031907,46.4368092 27.4080046,44.9315788 34.7168521,44.9315788 C40.0462201,44.9315788 44.8806457,45.8347171 49.2202739,47.6410207 C53.5599021,49.4473244 57.2523374,51.9309546 60.2976905,55.091986 C66.3883968,61.8656247 69.4337042,70.671223 69.4337042,81.5090449 L46.1368693,81.5090449 C46.1368693,76.8427605 45.109078,73.4183612 43.0534646,71.2357442 C40.9978513,69.0531273 38.2190082,67.9618352 34.7168521,67.9618352 C31.214696,67.9618352 28.435853,69.0531273 26.3802396,71.2357442 C24.3246262,73.4183612 23.296835,76.6922374 23.296835,81.0574713 L23.296835,127.795345 Z M92.2737383,160.760222 L92.2737383,46.2862997 L115.570573,46.2862997 L115.570573,58.4787885 C120.290871,54.2640799 124.934964,50.9525729 129.502994,48.544168 C134.071024,46.1357632 139.704843,44.9315788 146.40462,44.9315788 L146.40462,69.3165562 C144.120605,68.4134044 141.760491,67.9618352 139.324209,67.9618352 C136.887926,67.9618352 134.261349,68.3757736 131.444397,69.2036628 C128.627445,70.031552 126.077,71.4238902 123.792986,73.3807191 C121.356703,75.3375481 119.377253,77.8964399 117.854577,81.0574713 C116.3319,84.2185027 115.570573,88.1321019 115.570573,92.7983863 L115.570573,160.760222 L92.2737383,160.760222 Z M362.014542,78.3480293 C361.862275,74.4343714 360.606085,71.499172 358.245937,69.542343 C355.885788,67.5855141 353.183078,66.6071143 350.137724,66.6071143 C346.483301,66.6071143 343.666391,67.7736679 341.686912,70.1068101 C339.707432,72.4399523 338.717707,75.1117364 338.717707,78.1222425 C338.717707,80.2295968 339.250636,82.2992887 340.31651,84.3313803 C341.382383,86.3634719 344.12316,88.2073792 348.538922,89.8631576 L362.242943,95.2820414 C370.922199,98.5935981 376.898615,103.10929 380.172369,108.829251 C383.446124,114.549213 385.082977,120.795919 385.082977,127.569558 C385.082977,132.386368 384.207451,136.864428 382.456373,141.003874 C380.705295,145.14332 378.307115,148.793504 375.261762,151.954535 C372.216409,155.115567 368.56204,157.599197 364.298546,159.405501 C360.035051,161.211804 355.390957,162.114943 350.366125,162.114943 C340.92553,162.114943 333.007731,159.179743 326.612489,153.309256 C323.414868,150.449275 320.826357,146.874353 318.846877,142.584382 C316.867398,138.294411 315.80154,133.289519 315.649273,127.569558 L337.575706,127.569558 C338.032509,130.730589 339.136432,133.665789 340.887511,136.375244 C342.638589,139.0847 345.721962,140.439407 350.137724,140.439407 C353.487613,140.439407 356.494854,139.348115 359.159538,137.165498 C361.824222,134.982881 363.156544,131.934789 363.156544,128.021131 C363.156544,124.8601 362.319084,122.150685 360.64414,119.892806 C358.969196,117.634926 355.923888,115.678127 351.508126,114.022348 L340.31651,109.958185 C333.007662,107.24873 327.259644,103.222238 323.072284,97.87859 C318.884923,92.5349416 316.791274,86.0248199 316.791274,78.3480293 C316.791274,73.5312196 317.704867,69.0531589 319.532078,64.9137131 C321.35929,60.7742672 323.871669,57.1993448 327.06929,54.1888387 C330.114643,51.1783326 333.692879,48.8828562 337.804106,47.3023405 C341.915333,45.7218248 346.331028,44.9315788 351.051326,44.9315788 C355.771623,44.9315788 360.149253,45.7594555 364.184345,47.4152339 C368.219438,49.0710122 371.683476,51.4041195 374.576561,54.4146256 C377.469647,57.4251316 379.753627,61.000054 381.428571,65.1394999 C383.103516,69.2789458 383.940975,73.6817449 383.940975,78.3480293 L362.014542,78.3480293 Z M451.547476,78.3480293 C451.395209,74.4343714 450.139019,71.499172 447.778871,69.542343 C445.418722,67.5855141 442.716012,66.6071143 439.670659,66.6071143 C436.016235,66.6071143 433.199325,67.7736679 431.219846,70.1068101 C429.240366,72.4399523 428.250641,75.1117364 428.250641,78.1222425 C428.250641,80.2295968 428.78357,82.2992887 429.849444,84.3313803 C430.915317,86.3634719 433.656094,88.2073792 438.071856,89.8631576 L451.775877,95.2820414 C460.455133,98.5935981 466.431549,103.10929 469.705304,108.829251 C472.979058,114.549213 474.615911,120.795919 474.615911,127.569558 C474.615911,132.386368 473.740385,136.864428 471.989307,141.003874 C470.238229,145.14332 467.840049,148.793504 464.794696,151.954535 C461.749343,155.115567 458.094974,157.599197 453.83148,159.405501 C449.567985,161.211804 444.923892,162.114943 439.899059,162.114943 C430.458464,162.114943 422.540665,159.179743 416.145423,153.309256 C412.947802,150.449275 410.359291,146.874353 408.379812,142.584382 C406.400332,138.294411 405.334474,133.289519 405.182207,127.569558 L427.10864,127.569558 C427.565443,130.730589 428.669367,133.665789 430.420445,136.375244 C432.171523,139.0847 435.254897,140.439407 439.670659,140.439407 C443.020547,140.439407 446.027788,139.348115 448.692472,137.165498 C451.357156,134.982881 452.689478,131.934789 452.689478,128.021131 C452.689478,124.8601 451.852019,122.150685 450.177074,119.892806 C448.50213,117.634926 445.456823,115.678127 441.041061,114.022348 L429.849444,109.958185 C422.540596,107.24873 416.792578,103.222238 412.605218,97.87859 C408.417857,92.5349416 406.324209,86.0248199 406.324209,78.3480293 C406.324209,73.5312196 407.237801,69.0531589 409.065013,64.9137131 C410.892224,60.7742672 413.404603,57.1993448 416.602224,54.1888387 C419.647577,51.1783326 423.225813,48.8828562 427.33704,47.3023405 C431.448267,45.7218248 435.863963,44.9315788 440.58426,44.9315788 C445.304557,44.9315788 449.682187,45.7594555 453.71728,47.4152339 C457.752373,49.0710122 461.21641,51.4041195 464.109495,54.4146256 C467.002581,57.4251316 469.286561,61.000054 470.961506,65.1394999 C472.63645,69.2789458 473.473909,73.6817449 473.473909,78.3480293 L451.547476,78.3480293 Z M498.826347,160.760222 L498.826347,46.2862997 L522.123182,46.2862997 L522.123182,58.4787885 C526.843479,54.2640799 531.487573,50.9525729 536.055603,48.544168 C540.623633,46.1357632 546.257451,44.9315788 552.957228,44.9315788 L552.957228,69.3165562 C550.673214,68.4134044 548.3131,67.9618352 545.876818,67.9618352 C543.440535,67.9618352 540.813958,68.3757736 537.997006,69.2036628 C535.180054,70.031552 532.629609,71.4238902 530.345594,73.3807191 C527.909312,75.3375481 525.929862,77.8964399 524.407186,81.0574713 C522.884509,84.2185027 522.123182,88.1321019 522.123182,92.7983863 L522.123182,160.760222 L498.826347,160.760222 Z M568.031651,84.6700605 C568.031651,80.0037761 568.336182,75.7138692 568.945252,71.8002113 C569.554323,67.8865534 570.696313,64.4245233 572.371257,61.4140172 C575.112075,56.4466822 579.032908,52.4578214 584.133875,49.4473153 C589.234841,46.4368092 595.439655,44.9315788 602.748503,44.9315788 C610.05735,44.9315788 616.262164,46.4368092 621.363131,49.4473153 C626.464097,52.4578214 630.384931,56.4466822 633.125748,61.4140172 C634.800693,64.4245233 635.942683,67.8865534 636.551754,71.8002113 C637.160824,75.7138692 637.465355,80.0037761 637.465355,84.6700605 L637.465355,122.376461 C637.465355,127.042745 637.160824,131.332652 636.551754,135.24631 C635.942683,139.159968 634.800693,142.621998 633.125748,145.632504 C630.384931,150.599839 626.464097,154.5887 621.363131,157.599206 C616.262164,160.609712 610.05735,162.114943 602.748503,162.114943 C595.439655,162.114943 589.234841,160.609712 584.133875,157.599206 C579.032908,154.5887 575.112075,150.599839 572.371257,145.632504 C570.696313,142.621998 569.554323,139.159968 568.945252,135.24631 C568.336182,131.332652 568.031651,127.042745 568.031651,122.376461 L568.031651,84.6700605 Z M591.328486,125.98905 C591.328486,130.354284 592.356277,133.62816 594.41189,135.810777 C596.467504,137.993394 599.246347,139.084686 602.748503,139.084686 C606.250659,139.084686 609.029502,137.993394 611.085115,135.810777 C613.140729,133.62816 614.16852,130.354284 614.16852,125.98905 L614.16852,81.0574713 C614.16852,76.6922374 613.140729,73.4183612 611.085115,71.2357442 C609.029502,69.0531273 606.250659,67.9618352 602.748503,67.9618352 C599.246347,67.9618352 596.467504,69.0531273 594.41189,71.2357442 C592.356277,73.4183612 591.328486,76.6922374 591.328486,81.0574713 L591.328486,125.98905 Z M661.675791,84.6700605 C661.675791,80.0037761 661.980322,75.7138692 662.589392,71.8002113 C663.198463,67.8865534 664.340453,64.4245233 666.015398,61.4140172 C668.756215,56.4466822 672.677049,52.4578214 677.778015,49.4473153 C682.878982,46.4368092 689.083796,44.9315788 696.392643,44.9315788 C703.701491,44.9315788 709.906305,46.4368092 715.007271,49.4473153 C720.108238,52.4578214 724.029071,56.4466822 726.769889,61.4140172 C728.444833,64.4245233 729.586823,67.8865534 730.195894,71.8002113 C730.804965,75.7138692 731.109495,80.0037761 731.109495,84.6700605 L731.109495,122.376461 C731.109495,127.042745 730.804965,131.332652 730.195894,135.24631 C729.586823,139.159968 728.444833,142.621998 726.769889,145.632504 C724.029071,150.599839 720.108238,154.5887 715.007271,157.599206 C709.906305,160.609712 703.701491,162.114943 696.392643,162.114943 C689.083796,162.114943 682.878982,160.609712 677.778015,157.599206 C672.677049,154.5887 668.756215,150.599839 666.015398,145.632504 C664.340453,142.621998 663.198463,139.159968 662.589392,135.24631 C661.980322,131.332652 661.675791,127.042745 661.675791,122.376461 L661.675791,84.6700605 Z M684.972626,125.98905 C684.972626,130.354284 686.000417,133.62816 688.056031,135.810777 C690.111644,137.993394 692.890487,139.084686 696.392643,139.084686 C699.894799,139.084686 702.673642,137.993394 704.729256,135.810777 C706.784869,133.62816 707.81266,130.354284 707.81266,125.98905 L707.81266,81.0574713 C707.81266,76.6922374 706.784869,73.4183612 704.729256,71.2357442 C702.673642,69.0531273 699.894799,67.9618352 696.392643,67.9618352 C692.890487,67.9618352 690.111644,69.0531273 688.056031,71.2357442 C686.000417,73.4183612 684.972626,76.6922374 684.972626,81.0574713 L684.972626,125.98905 Z M760.344739,160.760222 L760.344739,64.349246 L748.924722,64.349246 L748.924722,46.2862997 L760.344739,46.2862997 L760.344739,30.7070086 C760.344739,25.1375723 761.182199,20.4337271 762.857143,16.5953319 C764.532087,12.7569366 766.816068,9.55832185 769.709153,6.99939167 C772.449971,4.44046149 775.609477,2.63418493 779.187767,1.5805078 C782.766057,0.526830664 786.458492,0 790.265184,0 L801,0 L801,21.6755355 L790.493584,21.6755355 C785.925555,21.6755355 783.641574,24.3096888 783.641574,29.5780745 L783.641574,46.2862997 L801,46.2862997 L801,64.349246 L783.641574,64.349246 L783.641574,160.760222 L760.344739,160.760222 Z" id="cr-ssroof-copy"></path>
                <g id="Cross/red-white" transform="translate(167.429929, 43.356322)">
                    <g id="Cross">
                        <path d="M12.6530612,12.6041667 L12.6530612,108.395833 L111.346939,108.395833 L111.346939,12.6041667 L12.6530612,12.6041667 Z M0,0 L124,0 L124,121 L0,121 L0,0 Z" id="bg" fill-rule="nonzero"></path>
                        <g id="icn_cross" transform="translate(30.367347, 27.729167)" fill-rule="nonzero">
                            <polygon id="Rectangle-5-Copy" points="57.1928219 0 65.7959184 8.56985193 8.60309642 65.5416667 0 56.9718147"></polygon>
                            <polygon id="Rectangle-5-Copy-2" points="57.1928219 65.5416667 0 8.56985193 8.60309642 0 65.7959184 56.9718147"></polygon>
                        </g>
                    </g>
                </g>
            </g>
        </g>
    </g>
</svg>