<?xml version="1.0" encoding="UTF-8"?>
<svg width="94px" height="142px" viewBox="0 0 94 142" version="1.1" xmlns="http://www.w3.org/2000/svg" xmlns:xlink="http://www.w3.org/1999/xlink">
    <!-- Generator: Sketch 49 (51002) - http://www.bohemiancoding.com/sketch -->
    <title>Crossroof Logo -  Minified</title>
    <desc>Created with Sketch.</desc>
    <defs></defs>
    <g id="Page-1" stroke="none" stroke-width="1" fill="none" fill-rule="evenodd">
        <g id="Desktop-HD" transform="translate(-419.000000, -586.000000)" fill="#000000">
            <g id="Group" transform="translate(320.000000, 375.000000)">
                <g id="Crossroof-Logo----Minified" transform="translate(99.000000, 211.000000)">
                    <path d="M9.082,106.346842 L9.082,118.878158 L12.388,118.878158 C13.4140051,118.878158 14.230997,118.737041 14.839,118.454803 C15.447003,118.172564 15.9219983,117.768029 16.264,117.241184 C16.5680015,116.714339 16.7769994,116.065201 16.891,115.29375 C17.0050006,114.522299 17.062,113.628558 17.062,112.6125 C17.062,111.596442 17.0050006,110.702701 16.891,109.93125 C16.7769994,109.159799 16.5490017,108.491845 16.207,107.927368 C15.4849964,106.873679 14.1170101,106.346842 12.103,106.346842 L9.082,106.346842 Z M3.268,141.118421 L3.268,100.927895 L12.616,100.927895 C19.4560342,100.927895 22.876,104.860355 22.876,112.725395 C22.876,115.096196 22.5055037,117.109465 21.7645,118.765263 C21.0234963,120.421061 19.7220093,121.756969 17.86,122.773026 L24.13,141.118421 L17.974,141.118421 L12.559,123.958421 L9.082,123.958421 L9.082,141.118421 L3.268,141.118421 Z M27.208,110.411053 C27.208,108.792887 27.4929972,107.362901 28.063,106.121053 C28.6330029,104.879204 29.3929953,103.844346 30.343,103.016447 C31.2550046,102.22618 32.2904942,101.624081 33.4495,101.210132 C34.6085058,100.796182 35.7769941,100.589211 36.955,100.589211 C38.1330059,100.589211 39.3014942,100.796182 40.4605,101.210132 C41.6195058,101.624081 42.6739953,102.22618 43.624,103.016447 C44.5360046,103.844346 45.2769972,104.879204 45.847,106.121053 C46.4170028,107.362901 46.702,108.792887 46.702,110.411053 L46.702,131.635263 C46.702,133.328693 46.4170028,134.777494 45.847,135.981711 C45.2769972,137.185927 44.5360046,138.183154 43.624,138.973421 C42.6739953,139.80132 41.6195058,140.422235 40.4605,140.836184 C39.3014942,141.250134 38.1330059,141.457105 36.955,141.457105 C35.7769941,141.457105 34.6085058,141.250134 33.4495,140.836184 C32.2904942,140.422235 31.2550046,139.80132 30.343,138.973421 C29.3929953,138.183154 28.6330029,137.185927 28.063,135.981711 C27.4929972,134.777494 27.208,133.328693 27.208,131.635263 L27.208,110.411053 Z M33.022,131.635263 C33.022,133.027639 33.4114961,134.053089 34.1905,134.711645 C34.9695039,135.370201 35.8909947,135.699474 36.955,135.699474 C38.0190053,135.699474 38.9404961,135.370201 39.7195,134.711645 C40.4985039,134.053089 40.888,133.027639 40.888,131.635263 L40.888,110.411053 C40.888,109.018677 40.4985039,107.993227 39.7195,107.334671 C38.9404961,106.676115 38.0190053,106.346842 36.955,106.346842 C35.8909947,106.346842 34.9695039,106.676115 34.1905,107.334671 C33.4114961,107.993227 33.022,109.018677 33.022,110.411053 L33.022,131.635263 Z M51.49,110.411053 C51.49,108.792887 51.7749972,107.362901 52.345,106.121053 C52.9150029,104.879204 53.6749953,103.844346 54.625,103.016447 C55.5370046,102.22618 56.5724942,101.624081 57.7315,101.210132 C58.8905058,100.796182 60.0589941,100.589211 61.237,100.589211 C62.4150059,100.589211 63.5834942,100.796182 64.7425,101.210132 C65.9015058,101.624081 66.9559953,102.22618 67.906,103.016447 C68.8180046,103.844346 69.5589972,104.879204 70.129,106.121053 C70.6990029,107.362901 70.984,108.792887 70.984,110.411053 L70.984,131.635263 C70.984,133.328693 70.6990029,134.777494 70.129,135.981711 C69.5589972,137.185927 68.8180046,138.183154 67.906,138.973421 C66.9559953,139.80132 65.9015058,140.422235 64.7425,140.836184 C63.5834942,141.250134 62.4150059,141.457105 61.237,141.457105 C60.0589941,141.457105 58.8905058,141.250134 57.7315,140.836184 C56.5724942,140.422235 55.5370046,139.80132 54.625,138.973421 C53.6749953,138.183154 52.9150029,137.185927 52.345,135.981711 C51.7749972,134.777494 51.49,133.328693 51.49,131.635263 L51.49,110.411053 Z M57.304,131.635263 C57.304,133.027639 57.6934961,134.053089 58.4725,134.711645 C59.2515039,135.370201 60.1729947,135.699474 61.237,135.699474 C62.3010053,135.699474 63.2224961,135.370201 64.0015,134.711645 C64.7805039,134.053089 65.17,133.027639 65.17,131.635263 L65.17,110.411053 C65.17,109.018677 64.7805039,107.993227 64.0015,107.334671 C63.2224961,106.676115 62.3010053,106.346842 61.237,106.346842 C60.1729947,106.346842 59.2515039,106.676115 58.4725,107.334671 C57.6934961,107.993227 57.304,109.018677 57.304,110.411053 L57.304,131.635263 Z M76.114,141.118421 L76.114,100.927895 L93.442,100.927895 L93.442,106.346842 L81.928,106.346842 L81.928,118.539474 L91.96,118.539474 L91.96,123.958421 L81.928,123.958421 L81.928,141.118421 L76.114,141.118421 Z" id="roof"></path>
                    <g id="Cross">
                        <g>
                            <path d="M9.48979592,9.375 L9.48979592,80.625 L83.5102041,80.625 L83.5102041,9.375 L9.48979592,9.375 Z M0,0 L93,0 L93,90 L0,90 L0,0 Z" id="bg" fill-rule="nonzero"></path>
                            <g id="icn_cross" transform="translate(22.775510, 20.625000)" fill-rule="nonzero">
                                <polygon id="Rectangle-5-Copy" points="42.6541353 0.321699141 49.0213005 6.61184211 6.69280344 48.4283009 0.325638314 42.1381579"></polygon>
                                <polygon id="Rectangle-5-Copy-2" points="42.6541353 48.4283009 0.325638314 6.61184211 6.69280344 0.321699141 49.0213005 42.1381579"></polygon>
                            </g>
                        </g>
                    </g>
                </g>
            </g>
        </g>
    </g>
</svg>