<?xml version="1.0" encoding="UTF-8"?>
<svg width="19px" height="44px" viewBox="0 0 19 44" version="1.1" xmlns="http://www.w3.org/2000/svg" xmlns:xlink="http://www.w3.org/1999/xlink">
    <!-- Generator: Sketch 49 (51002) - http://www.bohemiancoding.com/sketch -->
    <title>icn_scroll-down</title>
    <desc>Created with Sketch.</desc>
    <defs></defs>
    <g id="Welcome" stroke="none" stroke-width="1" fill="none" fill-rule="evenodd" opacity="0.404094203">
        <g id="Concept-2" transform="translate(-711.000000, -478.000000)" fill="#FFFFFF" fill-rule="nonzero">
            <g id="Header">
                <g id="icn_scroll-down" transform="translate(711.000000, 478.000000)">
                    <path d="M1.56028369,9.43438705 L1.56028369,23.5656129 C1.56028369,27.9100136 5.05238082,31.4285714 9.36170213,31.4285714 C13.670806,31.4285714 17.1631206,27.9088471 17.1631206,23.5656129 L17.1631206,9.43438705 C17.1631206,5.08998639 13.6710234,1.57142857 9.36170213,1.57142857 C5.05259825,1.57142857 1.56028369,5.09115294 1.56028369,9.43438705 Z M0,9.43438705 C0,4.22391899 4.19023999,0 9.36170213,0 C14.5320274,0 18.7234043,4.22138789 18.7234043,9.43438705 L18.7234043,23.5656129 C18.7234043,28.776081 14.5331643,33 9.36170213,33 C4.19137681,33 0,28.7786121 0,23.5656129 L0,9.43438705 Z" id="Shape"></path>
                    <path d="M8.58156028,5.5 L8.58156028,8.64285714 C8.58156028,9.07679512 8.93084172,9.42857143 9.36170213,9.42857143 C9.79256253,9.42857143 10.141844,9.07679512 10.141844,8.64285714 L10.141844,5.5 C10.141844,5.06606202 9.79256253,4.71428571 9.36170213,4.71428571 C8.93084172,4.71428571 8.58156028,5.06606202 8.58156028,5.5 Z" id="Shape"></path>
                    <path d="M9.36170213,41.6373524 L13.6523553,37.3160517 C13.9570196,37.0092112 14.4509781,37.0092112 14.7556425,37.3160517 C15.0603068,37.6228922 15.0603068,38.120379 14.7556425,38.4272195 L9.91334573,43.3041041 C9.76101352,43.4575243 9.56135782,43.5342345 9.36170213,43.5342345 C9.16204643,43.5342345 8.96239074,43.4575243 8.81005852,43.3041041 L3.93065028,38.389843 C3.62598594,38.0830025 3.62598594,37.5855157 3.93065028,37.2786752 C4.23531463,36.9718347 4.72927314,36.9718347 5.03393749,37.2786752 L9.36170213,41.6373524 Z" id="Shape"></path>
                </g>
            </g>
        </g>
    </g>
</svg>