<?xml version="1.0" encoding="UTF-8"?>
<svg width="61px" height="60px" viewBox="0 0 61 60" version="1.1" xmlns="http://www.w3.org/2000/svg" xmlns:xlink="http://www.w3.org/1999/xlink">
    <!-- Generator: Sketch 50.2 (55047) - http://www.bohemiancoding.com/sketch -->
    <title>icn_animal</title>
    <desc>Created with Sketch.</desc>
    <defs></defs>
    <g id="Welcome" stroke="none" stroke-width="1" fill="none" fill-rule="evenodd">
        <g id="Concept-3" transform="translate(-1150.000000, -1832.000000)" fill="#4A4A4A" fill-rule="nonzero">
            <g id="icn_animal" transform="translate(1148.000000, 1832.000000)">
                <path d="M29.755,59.9225 L27.695,58.5075 L35.7775,46.7625 C36.365,45.8825 37.315,45.2575 38.375,45.0625 L52.99,42.4075 C55.26,41.995 57.11,40.3725 57.815,38.175 L59.4225,33.1825 C59.85,32.1025 60.0525,31.0475 60.0525,29.97 C60.0525,29.4325 59.7075,28.955 59.1975,28.7825 L50.795,25.985 C49.9575,25.705 49.2275,25.1475 48.735,24.4125 L46.1125,20.48 C45.93,20.205 45.6525,19.995 45.34,19.8925 L37.54,17.0875 C36.025,16.5825 34.9875,15.145 34.9875,13.5175 L34.9875,3.7875 C34.9875,2.72 33.4575,2.15 32.755,2.9475 L4.3225,34.995 L2.4525,33.335 L30.8775,1.295 C31.5875,0.4825 32.6225,0.015 33.71,0.015 C35.79,0.015 37.485,1.7075 37.485,3.7875 L37.485,13.515 C37.485,14.0625 37.835,14.5475 38.3575,14.72 L46.155,17.525 C46.965,17.7925 47.6975,18.3525 48.19,19.0875 L50.8125,23.02 C50.995,23.295 51.2725,23.505 51.585,23.61 L59.9875,26.4075 C61.52,26.92 62.55,28.35 62.55,29.965 C62.55,31.3625 62.29,32.7275 61.77,34.025 L60.1925,38.935 C59.205,42.0125 56.615,44.285 53.435,44.865 L38.82,47.52 C38.425,47.59 38.0675,47.825 37.845,48.16 L29.755,59.9225 Z" id="Shape"></path>
                <circle id="Oval" cx="40" cy="27.5" r="2.5"></circle>
            </g>
        </g>
    </g>
</svg>