<?xml version="1.0" encoding="UTF-8"?>
<svg width="86px" height="41px" viewBox="0 0 86 41" version="1.1" xmlns="http://www.w3.org/2000/svg" xmlns:xlink="http://www.w3.org/1999/xlink">
    <!-- Generator: Sketch 50.2 (55047) - http://www.bohemiancoding.com/sketch -->
    <title>icn_vr</title>
    <desc>Created with Sketch.</desc>
    <defs></defs>
    <g id="Welcome" stroke="none" stroke-width="1" fill="none" fill-rule="evenodd">
        <g id="Concept-3" transform="translate(-677.000000, -1828.000000)" fill="#4A4A4A" fill-rule="nonzero">
            <g id="Section---Industries" transform="translate(376.000000, 1729.000000)">
                <g id="Industries" transform="translate(0.000000, 89.000000)">
                    <g id="AR/VR" transform="translate(301.000000, 10.000000)">
                        <g id="icn_vr">
                            <path d="M81.2319827,10.8339257 L78.3318909,10.8339257 C77.7277051,5.03332149 72.7733815,0.441176471 66.7315236,0.441176471 L53.0769246,0.441176471 L40.1473486,0.441176471 L18.6383343,0.441176471 C12.5964763,0.441176471 7.76298995,5.03332149 7.03796699,10.8339257 L4.13787517,10.8339257 C1.84196915,10.8339257 0.0294117647,12.6466145 0.0294117647,14.942687 L0.0294117647,26.1813577 C0.0294117647,28.4774302 1.84196915,30.2901191 4.13787517,30.2901191 L7.03796699,30.2901191 C7.15880415,31.2568864 7.40047847,32.1028079 7.64215279,32.9487293 L7.88382711,33.3112671 C9.0921987,36.3324151 11.5089419,38.6284876 14.5298709,39.8369469 C14.5298709,39.8369469 14.650708,39.8369469 14.650708,39.8369469 C15.2548938,40.0786387 15.9799168,40.1994846 16.5841026,40.3203305 C16.8257769,40.3203305 16.946614,40.4411765 17.1882884,40.4411765 C17.3091255,40.4411765 17.4299627,40.4411765 17.5507998,40.4411765 C17.9133113,40.4411765 18.2758228,40.4411765 18.6383343,40.4411765 L21.2967518,40.4411765 L30.2387015,40.4411765 C32.4137704,40.4411765 34.4680021,39.595255 36.1597223,37.9034121 C37.8514426,36.2115692 40.1473486,35.2448018 42.6849289,35.2448018 C45.2225093,35.2448018 47.3975781,36.2115692 49.2101355,37.9034121 C50.9018557,39.4744091 52.9560874,40.4411765 55.1311563,40.4411765 L66.8523607,40.4411765 C72.8942187,40.4411765 77.7277051,35.8490315 78.452728,30.0484272 L81.3528198,30.0484272 C83.6487259,30.0484272 85.4612832,28.2357384 85.4612832,25.9396659 L85.4612832,14.7009952 C85.3404461,12.7674605 83.5278887,10.8339257 81.2319827,10.8339257 Z M82.5611914,26.3022037 C82.5611914,27.0272792 81.9570056,27.6315088 81.2319827,27.6315088 L78.452728,27.6315088 L78.452728,13.6133819 L81.2319827,13.6133819 C81.9570056,13.6133819 82.5611914,14.2176115 82.5611914,14.942687 L82.5611914,26.3022037 Z M66.7315236,37.9034121 L55.0103191,37.9034121 C53.5602732,37.9034121 52.1102273,37.2991825 51.0226929,36.2115692 C48.7267869,34.0363426 45.8266951,32.8278834 42.5640918,32.8278834 C39.4223256,32.8278834 36.4013966,34.0363426 34.1054906,36.2115692 C33.0179562,37.2991825 31.5679103,37.9034121 30.1178644,37.9034121 L23.3509835,37.9034121 L50.6601814,3.22063266 L66.4898493,3.22063266 C71.4441728,3.22063266 75.431799,7.20854807 75.431799,12.1632309 L75.431799,29.0816599 C75.6734734,33.9154967 71.6858471,37.9034121 66.7315236,37.9034121 Z M9.69638449,29.0816599 L9.69638449,12.1632309 C9.69638449,7.20854807 13.6840107,3.22063266 18.6383343,3.22063266 L37.4889311,3.22063266 L9.93805881,30.7735028 C9.81722165,30.2901191 9.69638449,29.6858895 9.69638449,29.0816599 Z M2.80866642,26.3022037 L2.80866642,15.063533 C2.80866642,14.3384574 3.41285222,13.7342278 4.13787517,13.7342278 L6.91712983,13.7342278 L6.91712983,27.7523547 L4.13787517,27.7523547 C3.41285222,27.6315088 2.80866642,27.0272792 2.80866642,26.3022037 Z M18.6383343,37.9034121 C18.3966599,37.9034121 18.1549856,37.9034121 17.9133113,37.9034121 C17.7924742,37.9034121 17.7924742,37.9034121 17.671637,37.9034121 C17.4299627,37.9034121 17.3091255,37.9034121 17.0674512,37.7825662 C16.946614,37.7825662 16.7049397,37.6617203 16.5841026,37.6617203 C16.4632654,37.6617203 16.4632654,37.6617203 16.3424282,37.5408744 C14.1673594,36.9366447 12.2339648,35.4864937 11.0255932,33.5529589 L41.3557202,3.22063266 L47.3975781,3.22063266 L19.967543,37.9034121 L18.6383343,37.9034121 Z" id="Shape"></path>
                        </g>
                    </g>
                </g>
            </g>
        </g>
    </g>
</svg>