<?xml version="1.0" encoding="UTF-8"?>
<svg width="77px" height="60px" viewBox="0 0 77 60" version="1.1" xmlns="http://www.w3.org/2000/svg" xmlns:xlink="http://www.w3.org/1999/xlink">
    <!-- Generator: Sketch 50.2 (55047) - http://www.bohemiancoding.com/sketch -->
    <title>icn_esports</title>
    <desc>Created with Sketch.</desc>
    <defs></defs>
    <g id="Welcome" stroke="none" stroke-width="1" fill="none" fill-rule="evenodd">
        <g id="Concept-3" transform="translate(-946.000000, -2076.000000)" fill="#4A4A4A" fill-rule="nonzero">
            <g id="icn_esports" transform="translate(946.000000, 2076.000000)">
                <path d="M73.3333333,28.3333333 C70.1666667,22 65.1666667,17.5 59.6666667,16 C55.8333333,15.0833333 52.25,15.5833333 49.1666667,17.5 C46.75,18.3333333 44.25,18.8333333 41.6666667,19.0833333 L41.6666667,14.0833333 C41.6666667,12.5833333 42,9 45,9 C48.0833333,9 51.6666667,7.75 51.6666667,1.91666667 L51.6666667,0.25 L48.3333333,0.25 L48.3333333,1.91666667 C48.3333333,5.08333333 47.1666667,5.66666667 45,5.66666667 C40.9166667,5.66666667 38.3333333,9 38.3333333,14.0833333 L38.3333333,19.1666667 C34.8333333,19.0833333 31.25,18.4166667 27.9166667,17.0833333 C24.8333333,15.0833333 21.1666667,14.5 17.3333333,15.5833333 C11.75,17.0833333 6.66666667,21.6666667 3.41666667,28.1666667 C-2.16666667,39.25 -0.333333333,52.5 7.41666667,57.6666667 C9.58333333,59.0833333 11.9166667,59.8333333 14.5,59.8333333 C15.6666667,59.8333333 16.9166667,59.6666667 18.1666667,59.3333333 C23.5833333,57.9166667 28.5833333,53.5 31.9166667,47.3333333 C36.25,45.5 41.1666667,45.5 45.5,47.1666667 C48.75,53.25 53.6666667,57.5 59,58.9166667 C62.8333333,59.9166667 66.4166667,59.3333333 69.5,57.25 C77,52.25 78.75,39.25 73.3333333,28.3333333 Z M67.5,54.5 C65.25,56 62.5,56.4166667 59.6666667,55.6666667 C55.1666667,54.5 50.9166667,50.6666667 48.1666667,45.3333333 C47.9166667,44.8333333 47.4166667,44.4166667 46.8333333,44.1666667 L46.5,44.0833333 C41.25,42 35.25,42.1666667 30.0833333,44.4166667 C29.5833333,44.6666667 29.1666667,45.0833333 28.8333333,45.5833333 C26,51 21.6666667,55 17.0833333,56.1666667 C14.1666667,56.9166667 11.4166667,56.5 9.08333333,54.9166667 C2.66666667,50.6666667 1.41666667,39.3333333 6.25,29.6666667 C9,24.0833333 13.4166667,20.0833333 18.0833333,18.8333333 C19.0833333,18.5833333 20,18.4166667 20.9166667,18.4166667 C22.8333333,18.4166667 24.5833333,18.9166667 26.1666667,20 L26.5,20.1666667 C34.1666667,23.1666667 42.5,23.3333333 50.25,20.6666667 L50.6666667,20.5 L50.8333333,20.4166667 C53.1666667,18.9166667 55.8333333,18.5 58.75,19.25 C63.25,20.4166667 67.5833333,24.4166667 70.3333333,29.8333333 C75.0833333,39.25 73.8333333,50.3333333 67.5,54.5 Z" id="Shape"></path>
                <path d="M57.5,27.75 C53.3333333,27.75 50,31.0833333 50,35.25 C50,39.4166667 53.3333333,42.75 57.5,42.75 C61.6666667,42.75 65,39.4166667 65,35.25 C65,31.0833333 61.6666667,27.75 57.5,27.75 Z M57.5,39.4166667 C55.1666667,39.4166667 53.3333333,37.5833333 53.3333333,35.25 C53.3333333,32.9166667 55.1666667,31.0833333 57.5,31.0833333 C59.8333333,31.0833333 61.6666667,32.9166667 61.6666667,35.25 C61.6666667,37.5833333 59.8333333,39.4166667 57.5,39.4166667 Z" id="Shape"></path>
                <polygon id="Shape" points="20 28.75 16.6666667 28.75 16.6666667 33.75 11.6666667 33.75 11.6666667 37.0833333 16.6666667 37.0833333 16.6666667 42.0833333 20 42.0833333 20 37.0833333 25 37.0833333 25 33.75 20 33.75"></polygon>
            </g>
        </g>
    </g>
</svg>