<?xml version="1.0" encoding="UTF-8"?>
<svg width="66px" height="60px" viewBox="0 0 66 60" version="1.1" xmlns="http://www.w3.org/2000/svg" xmlns:xlink="http://www.w3.org/1999/xlink">
    <!-- Generator: Sketch 50.2 (55047) - http://www.bohemiancoding.com/sketch -->
    <title>icn_food</title>
    <desc>Created with Sketch.</desc>
    <defs></defs>
    <g id="Welcome" stroke="none" stroke-width="1" fill="none" fill-rule="evenodd">
        <g id="Concept-3" transform="translate(-1010.000000, -1818.000000)" fill="#4A4A4A">
            <g id="Section---Industries" transform="translate(376.000000, 1729.000000)">
                <g id="Industries" transform="translate(0.000000, 89.000000)">
                    <g id="Food" transform="translate(634.000000, 0.000000)">
                        <g id="icn_food">
                            <path d="M63.7209723,56.712 C64.2606032,56.7052856 64.7621408,56.9893281 65.0339131,57.4555752 C65.3056855,57.9218223 65.3056855,58.4982077 65.0339131,58.9644548 C64.7621408,59.4307019 64.2606032,59.7147444 63.7209723,59.70803 L2.19483296,59.70803 C1.65520209,59.7147444 1.15366443,59.4307019 0.881892106,58.9644548 C0.610119782,58.4982077 0.610119782,57.9218223 0.881892106,57.4555752 C1.15366443,56.9893281 1.65520209,56.7052856 2.19483296,56.712 L63.7209723,56.712 Z" id="Shape"></path>
                            <path d="M37.5861438,0.368846442 C38.1210031,0.368907258 38.6152599,0.654112878 38.8829582,1.11715943 C39.1506565,1.58020598 39.1511855,2.15084747 38.8843461,2.61438951 L36.8539341,6.14105618 L35.0243461,9.30937079 L35.0243461,12.4676479 C52.247564,13.5367116 65.9176015,27.8977603 65.9176015,45.4269064 C65.9176015,47.5236105 65.7215715,49.580015 65.3389498,51.5731985 C65.2034554,52.2787201 64.5862033,52.7887388 63.8677888,52.788779 L2.04988914,52.788779 C1.32846095,52.7887004 0.709544066,52.2744632 0.577304869,51.5652584 C0.207641948,49.582412 1.49812736e-06,47.5288539 1.49812736e-06,45.4269064 C1.49812736e-06,27.5182846 14.270788,12.9086966 32.0283161,12.4111685 L32.0283161,9.31334082 L31.8367056,8.98472659 C31.8341999,8.98223855 31.831703,8.97974165 31.829215,8.97723596 L30.1943835,6.13918352 C30.1943835,6.13910861 30.1943835,6.13903371 30.1943835,6.1389588 L28.1639715,2.61229213 C27.8971321,2.14875009 27.8976611,1.5781086 28.1653594,1.11506205 C28.4330577,0.6520155 28.9273145,0.36680988 29.4621738,0.366749064 L33.522773,0.366749064 L37.5836719,0.366749064 L37.5861438,0.368846442 Z M34.9952824,3.3648764 L33.5252449,3.3648764 L32.0555071,3.3648764 L32.7931101,4.646 L32.7931101,4.64622472 L33.5241213,5.91566292 L34.25723,4.64622472 L34.9940839,3.36652434 L34.9952824,3.3648764 Z M32.9629978,15.3952884 C16.3961064,15.3952884 2.99505768,28.8221873 2.99505768,45.4285543 C2.99505768,46.9081049 3.10906517,48.3663071 3.31842846,49.794397 L62.6015715,49.794397 C62.8122831,48.3710262 62.9208974,46.912824 62.9208974,45.4285543 C62.9208974,29.0792659 49.9281633,15.8207566 33.7306382,15.4109438 C33.5822855,15.4307618 33.4318006,15.4282369 33.2841963,15.4034532 C33.0812749,15.4033783 32.9671176,15.3929663 32.9629978,15.3929663 L32.9629978,15.3952884 Z" id="Shape"></path>
                            <path d="M35.6814247,18.8161873 C40.3845708,18.8843521 45.9901858,22.0751386 50.6514592,26.9561124 C55.3127326,31.8371685 58.9713094,38.5458577 58.8986502,45.964809 C58.9012067,46.5052044 58.6125303,47.0050953 58.1432042,47.2729884 C57.673878,47.5408815 57.0966491,47.5352527 56.6326364,47.2582581 C56.1686237,46.9812636 55.8897506,46.4758383 55.9028449,45.9355955 C55.9657663,39.529603 52.7364779,33.477618 48.4847925,29.0254831 C44.233182,24.5733408 38.9006757,21.8590337 35.6383536,21.8119925 C35.0995273,21.8097479 34.6034132,21.5183152 34.339095,21.0487679 C34.0747768,20.5792205 34.0829764,20.003899 34.3605686,19.542075 C34.6381609,19.080251 35.1423788,18.8030752 35.6810502,18.8161873 L35.6814247,18.8161873 Z" id="Shape"></path>
                        </g>
                    </g>
                </g>
            </g>
        </g>
    </g>
</svg>