<?xml version="1.0" encoding="UTF-8"?>
<svg width="23px" height="21px" viewBox="0 0 23 21" version="1.1" xmlns="http://www.w3.org/2000/svg" xmlns:xlink="http://www.w3.org/1999/xlink">
    <!-- Generator: Sketch 50.2 (55047) - http://www.bohemiancoding.com/sketch -->
    <title>“</title>
    <desc>Created with Sketch.</desc>
    <defs></defs>
    <g id="Welcome" stroke="none" stroke-width="1" fill="none" fill-rule="evenodd">
        <g id="Concept-3" transform="translate(-509.000000, -2352.000000)" fill="#FF706B">
            <g id="Section---Quote" transform="translate(358.000000, 2352.000000)">
                <g id="Quotes">
                    <g id="Quote">
                        <path d="M172.921392,0.837890625 L172.921392,3.69503348 C172.054271,4.18409642 171.40394,5.06568348 170.970379,6.33982113 C170.536818,7.61395877 170.320041,9.29347866 170.320041,11.3784312 L170.320041,12.2664621 L173.850446,12.2664621 L173.850446,20.8378906 L165.600446,20.8378906 L165.600446,14.4286242 C165.600446,10.5418609 166.207422,7.46595858 167.421392,5.20082499 C168.635362,2.9356914 170.468677,1.48139449 172.921392,0.837890625 Z M159.171392,0.837890625 L159.171392,3.69503348 C158.304271,4.18409642 157.65394,5.06568348 157.220379,6.33982113 C156.786818,7.61395877 156.570041,9.29347866 156.570041,11.3784312 L156.570041,12.2664621 L160.100446,12.2664621 L160.100446,20.8378906 L151.850446,20.8378906 L151.850446,14.4286242 C151.850446,10.5418609 152.457422,7.46595858 153.671392,5.20082499 C154.885362,2.9356914 156.718677,1.48139449 159.171392,0.837890625 Z" id="“"></path>
                    </g>
                </g>
            </g>
        </g>
    </g>
</svg>