<?xml version="1.0" encoding="UTF-8"?>
<svg width="61px" height="60px" viewBox="0 0 61 60" version="1.1" xmlns="http://www.w3.org/2000/svg" xmlns:xlink="http://www.w3.org/1999/xlink">
    <!-- Generator: Sketch 50.2 (55047) - http://www.bohemiancoding.com/sketch -->
    <title>icn_fashion</title>
    <desc>Created with Sketch.</desc>
    <defs></defs>
    <g id="Welcome" stroke="none" stroke-width="1" fill="none" fill-rule="evenodd">
        <g id="Concept-3" transform="translate(-526.000000, -1818.000000)" fill="#4A4A4A" fill-rule="nonzero">
            <g id="Section---Industries" transform="translate(376.000000, 1729.000000)">
                <g id="Industries" transform="translate(0.000000, 89.000000)">
                    <g id="Fashion" transform="translate(150.000000, 0.000000)">
                        <g id="icn_fashion">
                            <path d="M35.9483333,46.7825 L12.8675,13.8541667 C12.5883333,13.46 12.1375,13.2233333 11.6533333,13.2233333 C4.73583333,13.2233333 0.0891666667,18.5733333 0.0891666667,26.54 C0.0891666667,29.6633333 1.1925,32.6966667 3.19583333,35.0875 C3.20083333,35.095 3.21416667,35.1008333 3.22,35.1075 C3.74916667,35.7966667 4.03333333,36.6183333 4.03333333,37.4916667 L4.03333333,58.0991667 C4.03333333,58.9183333 4.6975,59.5816667 5.515,59.5816667 L11.6525,59.5816667 C12.4725,59.5816667 13.1341667,58.9183333 13.1341667,58.0991667 L13.1341667,33.7425 C14.74,34.935 17.3883333,37.9091667 20.1283333,45.3 C25.2683333,59.1816667 30.77,59.5833333 31.3816667,59.5833333 L43.2191667,59.5833333 C46.2091667,59.5833333 48.6425,57.1491667 48.6425,54.1558333 C48.6425,52.6233333 48.0441667,51.2058333 47.0008333,50.2666667 C44.6408333,48.1475 38.1533333,47.0866667 35.9483333,46.7825 Z M43.2191667,56.6216667 L31.4525,56.6233333 C31.4133333,56.6175 27.27,56.055 22.9075,44.2708333 C17.7658333,30.3933333 12.2641667,29.99 11.6541667,29.99 C10.8341667,29.99 10.135,30.6533333 10.135,31.4708333 C10.135,31.5366667 10.1633333,31.5958333 10.1733333,31.6616667 L10.1733333,56.6216667 L6.99833333,56.6216667 L6.99833333,37.4925 C6.99833333,35.9283333 6.46083333,34.3983333 5.4825,33.1808333 C5.4675,33.1633333 5.45166667,33.1591667 5.43666667,33.1416667 C3.90333333,31.2875 3.05416667,28.9508333 3.05416667,26.54 C3.05416667,21.9558333 5.12583333,16.6375 10.9025,16.2116667 L33.8966667,49.0175 C34.1383333,49.3625 34.5141667,49.5858333 34.9333333,49.6366667 C38.0283333,50.0091667 43.505,51.11 45.02,52.47 C45.4416667,52.8466667 45.68,53.4608333 45.68,54.155 C45.68,55.5158333 44.5775,56.6216667 43.2191667,56.6216667 Z" id="Shape"></path>
                            <path d="M45.565,0.414166667 C37.41,0.414166667 30.7766667,7.04833333 30.7766667,15.205 C30.7766667,23.3591667 37.4091667,29.9933333 45.565,29.9933333 C53.7225,29.9933333 60.3566667,23.36 60.3566667,15.205 C60.3566667,7.04833333 53.7225,0.414166667 45.565,0.414166667 Z M45.565,27.0291667 C39.0441667,27.0291667 33.7383333,21.7241667 33.7383333,15.2041667 C33.7383333,8.68333333 39.0441667,3.37916667 45.565,3.37916667 C52.0883333,3.37916667 57.3933333,8.68416667 57.3933333,15.2041667 C57.3933333,21.7241667 52.0883333,27.0291667 45.565,27.0291667 Z" id="Shape"></path>
                            <path d="M41.87,9.28833333 C40.6483333,9.28833333 39.6525,10.2858333 39.6525,11.5075 C39.6525,12.7316667 40.6483333,13.725 41.87,13.725 C43.0916667,13.725 44.085,12.7325 44.085,11.5075 C44.085,10.2858333 43.0916667,9.28833333 41.87,9.28833333 Z" id="Shape"></path>
                            <path d="M49.2625,9.28833333 C48.0383333,9.28833333 47.0425,10.2858333 47.0425,11.5075 C47.0425,12.7316667 48.0383333,13.725 49.2625,13.725 C50.4858333,13.725 51.4816667,12.7325 51.4816667,11.5075 C51.4816667,10.2858333 50.4858333,9.28833333 49.2625,9.28833333 Z" id="Shape"></path>
                            <path d="M41.87,16.6825 C40.6483333,16.6825 39.6525,17.6783333 39.6525,18.9008333 C39.6525,20.1225 40.6483333,21.12 41.87,21.12 C43.0916667,21.12 44.085,20.1233333 44.085,18.9008333 C44.085,17.6783333 43.0916667,16.6825 41.87,16.6825 Z" id="Shape"></path>
                            <path d="M49.2625,16.6825 C48.0383333,16.6825 47.0425,17.6783333 47.0425,18.9008333 C47.0425,20.1225 48.0383333,21.12 49.2625,21.12 C50.4858333,21.12 51.4816667,20.1233333 51.4816667,18.9008333 C51.4816667,17.6783333 50.4858333,16.6825 49.2625,16.6825 Z" id="Shape"></path>
                        </g>
                    </g>
                </g>
            </g>
        </g>
    </g>
</svg>