<?xml version="1.0" encoding="UTF-8"?>
<svg width="67px" height="60px" viewBox="0 0 67 60" version="1.1" xmlns="http://www.w3.org/2000/svg" xmlns:xlink="http://www.w3.org/1999/xlink">
    <!-- Generator: Sketch 50.2 (55047) - http://www.bohemiancoding.com/sketch -->
    <title>icn_health</title>
    <desc>Created with Sketch.</desc>
    <defs></defs>
    <g id="Welcome" stroke="none" stroke-width="1" fill="none" fill-rule="evenodd">
        <g id="Concept-3" transform="translate(-853.000000, -1818.000000)" fill="#4A4A4A" fill-rule="nonzero">
            <g id="Section---Industries" transform="translate(376.000000, 1729.000000)">
                <g id="Industries" transform="translate(0.000000, 89.000000)">
                    <g id="Health" transform="translate(477.000000, 0.000000)">
                        <g id="icn_health">
                            <path d="M33.4189406,59.8073836 C32.3595506,59.8073836 31.3001605,59.4221509 30.4333868,58.5553772 L5.87479936,34.0930979 C2.31139647,30.4333868 0.288924559,25.2327448 0.288924559,19.8394864 C0.288924559,9.24558587 8.08988764,0.577849117 17.6243981,0.577849117 C24.7512039,0.577849117 30.8186196,5.29695024 33.5152488,12.1348315 C36.211878,5.29695024 42.2792937,0.577849117 49.4060995,0.577849117 C58.94061,0.577849117 66.741573,9.24558587 66.741573,19.8394864 C66.741573,25.2327448 64.7191011,30.4333868 61.1556982,33.9967897 L36.3081862,58.5553772 C35.5377207,59.4221509 34.4783307,59.8073836 33.4189406,59.8073836 Z M17.5280899,3.4670947 C9.53451043,3.4670947 3.08186196,10.7865169 3.08186196,19.8394864 C3.08186196,24.4622793 4.81540931,28.8924559 7.89727127,31.9743178 L8.18619583,32.2632424 L32.4558587,56.5329053 C32.9373997,57.0144462 33.8041734,57.0144462 34.2857143,56.5329053 L58.8443018,31.9743178 C61.8298555,28.8924559 63.6597111,24.4622793 63.6597111,19.8394864 C63.6597111,10.7865169 57.2070626,3.4670947 49.2134831,3.4670947 C41.2199037,3.4670947 34.7672552,10.7865169 34.7672552,19.8394864 C34.7672552,20.6099518 34.0930979,21.2841091 33.3226324,21.2841091 C32.5521669,21.2841091 31.8780096,20.6099518 31.8780096,19.8394864 C31.9743178,10.7865169 25.5216693,3.4670947 17.5280899,3.4670947 Z" id="Shape"></path>
                            <path d="M33.9004815,45.2648475 C33.2263242,45.2648475 32.7447833,44.8796148 32.5521669,44.2054575 L27.929374,29.470305 L25.8105939,35.9229535 C25.6179775,36.5008026 25.0401284,36.8860353 24.4622793,36.8860353 L9.53451043,36.8860353 C8.76404494,36.8860353 8.08988764,36.211878 8.08988764,35.4414125 C8.08988764,34.670947 8.76404494,33.9967897 9.53451043,33.9967897 L23.4028892,33.9967897 L26.5810594,24.1733547 C26.7736758,23.5955056 27.3515249,23.2102729 27.929374,23.2102729 C27.929374,23.2102729 27.929374,23.2102729 27.929374,23.2102729 C28.6035313,23.2102729 29.0850722,23.5955056 29.2776886,24.2696629 L33.7078652,38.6195827 L34.670947,35.0561798 C34.8635634,34.3820225 35.4414125,33.9967897 36.0192616,33.9967897 L50.0802568,33.9967897 C50.8507223,33.9967897 51.5248796,34.670947 51.5248796,35.4414125 C51.5248796,36.211878 50.8507223,36.8860353 50.0802568,36.8860353 L37.2712681,36.8860353 L35.2487961,44.2054575 C35.152488,44.7833066 34.5746388,45.2648475 33.9004815,45.2648475 C33.9004815,45.2648475 33.9004815,45.2648475 33.9004815,45.2648475 Z" id="Shape"></path>
                            <circle id="Oval" cx="49.9839486" cy="35.4414125" r="2.7929374"></circle>
                        </g>
                    </g>
                </g>
            </g>
        </g>
    </g>
</svg>