<?xml version="1.0" encoding="UTF-8"?>
<svg width="60px" height="60px" viewBox="0 0 60 60" version="1.1" xmlns="http://www.w3.org/2000/svg" xmlns:xlink="http://www.w3.org/1999/xlink">
    <!-- Generator: Sketch 50.2 (55047) - http://www.bohemiancoding.com/sketch -->
    <title>icn_travel</title>
    <desc>Created with Sketch.</desc>
    <defs></defs>
    <g id="Welcome" stroke="none" stroke-width="1" fill="none" fill-rule="evenodd">
        <g id="Concept-3" transform="translate(-376.000000, -1818.000000)" fill="#4A4A4A" fill-rule="nonzero">
            <g id="Section---Industries" transform="translate(376.000000, 1729.000000)">
                <g id="Industries" transform="translate(0.000000, 89.000000)">
                    <g id="Travel">
                        <g id="icn_travel">
                            <path d="M55.2406667,53.8533333 C56.5393333,52.2533333 57.32,50.2166667 57.32,47.9953333 C57.3193333,42.8553333 53.154,38.69 48.014,38.6893333 C42.874,38.69 38.7086667,42.8553333 38.708,47.9953333 C38.7086667,53.1353333 42.874,57.3006667 48.014,57.3013333 C50.2353333,57.3013333 52.2726667,56.5206667 53.872,55.222 L58.346,59.696 C58.724,60.074 59.3366667,60.074 59.7146667,59.696 C60.0926667,59.318 60.0926667,58.7053333 59.7146667,58.3273333 L55.2406667,53.8533333 Z M42.802,53.2066667 C41.4666667,51.87 40.644,50.0333333 40.6433333,47.9946667 C40.644,45.956 41.4666667,44.12 42.802,42.7826667 C44.1386667,41.4473333 45.9753333,40.6246667 48.014,40.624 C50.0526667,40.6246667 51.8886667,41.4473333 53.226,42.7826667 C54.5613333,44.1193333 55.384,45.956 55.3846667,47.9946667 C55.384,50.0326667 54.5613333,51.8693333 53.226,53.206 C51.8893333,54.5413333 50.0526667,55.364 48.0146667,55.3646667 C45.9753333,55.3653333 44.1386667,54.5426667 42.802,53.2066667 Z" id="Shape"></path>
                            <path d="M54.718,12.9966667 C49.2833333,5.162 40.2406667,0 30,0 C20.652,0 12.2993333,4.31133333 6.78466667,11.0113333 L6.778,11.0193333 L6.762,11.038 L6.75266667,11.0546667 C6.71,11.108 6.67466667,11.1653333 6.644,11.2266667 C2.476,16.364 0,22.9086667 0,29.9613333 C0,33.7433333 0.665333333,37.3486667 1.99666667,40.686 C2.01333333,40.7673333 2.038,40.8466667 2.07666667,40.9226667 C2.13066667,41.022 2.19733333,41.2306667 2.314,41.498 C2.34,41.584 2.376,41.6653333 2.42533333,41.7413333 C4.69933333,47.05 8.474,51.6066667 13.1893333,54.8526667 L13.3113333,54.9393333 C18.0646667,58.1273333 23.8166667,60 30,60 C31.522,60 33.008,59.88 34.456,59.6386667 C34.9833333,59.5506667 35.3393333,59.052 35.2513333,58.5253333 C35.1633333,57.998 34.6646667,57.642 34.138,57.73 C32.7986667,57.9533333 31.42,58.0653333 30,58.0653333 C24.7513333,58.0653333 19.848,56.6233333 15.664,54.134 L19.3806667,51.9133333 C21.9386667,50.3853333 23.624,47.7366667 23.924,44.772 L24.2013333,42.0326667 C24.2206667,41.8406667 24.23,41.6513333 24.23,41.4626667 C24.23,39.9426667 23.6113333,38.5466667 22.6073333,37.538 C21.6053333,36.5273333 20.202,35.892 18.652,35.8926667 L16.472,35.8926667 C15.4306667,35.892 14.432,35.458 13.7326667,34.6586667 L13.7306667,34.6566667 C12.6246667,33.3926667 11.1046667,32.758 9.57866667,32.7633333 C8.54733333,32.7633333 7.52666667,33.0586667 6.63866667,33.614 C5.75133333,34.1686667 4.99533333,34.9906667 4.514,36.0306667 L4.51,36.0393333 L3.32066667,38.6746667 C2.402,35.944 1.936,33.0286667 1.93533333,29.962 C1.93533333,23.9933333 3.832,18.4226667 7.07866667,13.8553333 L7.55866667,15.7013333 C8.00733333,17.426 9.564,18.6293333 11.346,18.6293333 L15.096,18.6293333 C16.5526667,18.6293333 17.8893333,17.82 18.564,16.5286667 L19.8033333,14.158 C20.1606667,13.4733333 20.8473333,13.098 21.56,13.0953333 C21.9473333,13.096 22.3326667,13.2066667 22.682,13.448 L24.4626667,14.6813333 C25.0213333,15.0686667 25.3126667,15.6806667 25.314,16.31 C25.3133333,16.744 25.1753333,17.1726667 24.88,17.5433333 C24.3013333,18.2646667 24.0213333,19.134 24.022,19.9826667 C24.0193333,21.35 24.7453333,22.704 26.0613333,23.4226667 L29.0246667,25.0393333 C29.5386667,25.32 29.9026667,25.814 30.0173333,26.3886667 L31.4,33.3186667 C31.5913333,34.2873333 32.1226667,35.092 32.818,35.632 C33.514,36.174 34.37,36.468 35.25,36.4686667 C36.1666667,36.4713333 37.1173333,36.138 37.8773333,35.442 L42.632,31.0966667 C43.4466667,30.3513333 43.9053333,29.302 43.9046667,28.2086667 C43.9046667,28.0906667 43.8993333,27.9733333 43.8886667,27.8573333 L43.4533333,23.0266667 C43.448,22.966 43.4453333,22.9066667 43.4453333,22.8473333 C43.4453333,22.1806667 43.7826667,21.5526667 44.3493333,21.1873333 L44.366,21.176 L53.654,14.8973333 C56.4393333,19.2653333 58.0646667,24.428 58.0646667,29.9606667 C58.0646667,31.3806667 57.9526667,32.7593333 57.7293333,34.0986667 L57.716,34.258 L57.716,34.2966667 C57.716,34.8313333 58.1493333,35.2646667 58.684,35.2646667 C59.186,35.2646667 59.594,34.8806667 59.642,34.3913333 C59.8806667,32.9513333 60,31.4746667 60,29.9613333 C60.0006667,23.6813333 58.0386667,17.8366667 54.7206667,13.0006667 L54.718,12.9966667 Z M6.27066667,36.8433333 C6.59266667,36.15 7.084,35.6186667 7.666,35.2533333 C8.24733333,34.8893333 8.91866667,34.6973333 9.57866667,34.6973333 C10.59,34.7026667 11.5226667,35.0833333 12.2773333,35.9333333 L12.2753333,35.9313333 C13.3513333,37.1613333 14.8906667,37.8273333 16.4713333,37.8266667 L18.6513333,37.8266667 C19.6706667,37.8273333 20.5733333,38.238 21.234,38.9006667 C21.8926667,39.5646667 22.294,40.4706667 22.294,41.4613333 C22.294,41.5846667 22.288,41.7093333 22.2746667,41.8373333 L21.9973333,44.5753333 C21.7586667,46.9313333 20.42,49.036 18.3866667,50.25 L13.8673333,52.95 C9.71333333,49.978 6.36933333,45.906 4.304,41.1966667 L6.27066667,36.8433333 Z M43.282,19.5726667 L43.2826667,19.5733333 C42.1713333,20.3 41.5093333,21.534 41.5093333,22.8473333 C41.5093333,22.9646667 41.5146667,23.0833333 41.5253333,23.2013333 L41.962,28.028 C41.9673333,28.0873333 41.97,28.1473333 41.97,28.2066667 C41.97,28.7593333 41.7386667,29.29 41.3266667,29.666 L36.5726667,34.0113333 C36.1713333,34.3753333 35.7166667,34.5293333 35.2506667,34.532 C34.806,34.5326667 34.3593333,34.3793333 34.0093333,34.1053333 C33.6593333,33.8293333 33.402,33.448 33.2986667,32.9386667 L31.916,26.0086667 C31.6893333,24.872 30.97,23.894 29.952,23.3386667 L26.9893333,21.7226667 C26.3193333,21.3566667 25.9606667,20.6813333 25.958,19.982 C25.9593333,19.55 26.0946667,19.1233333 26.392,18.7513333 C26.9686667,18.0306667 27.2506667,17.162 27.2493333,16.3093333 C27.2513333,15.0773333 26.664,13.8513333 25.5646667,13.09 L23.784,11.8566667 C23.1053333,11.3853333 22.3233333,11.1586667 21.56,11.16 C20.1633333,11.1573333 18.792,11.914 18.088,13.2613333 L16.8486667,15.632 C16.5073333,16.2846667 15.832,16.694 15.096,16.694 L11.3466667,16.694 C10.4466667,16.694 9.65933333,16.0853333 9.43266667,15.214 L8.572,11.9046667 C13.7406667,5.82333333 21.416,1.93533333 30,1.93533333 C39.228,1.93533333 47.4026667,6.42066667 52.5446667,13.3113333 L43.282,19.5726667 Z" id="Shape"></path>
                        </g>
                    </g>
                </g>
            </g>
        </g>
    </g>
</svg>